<?xml version="1.0" encoding="UTF-8" standalone="no"?>
<!-- Created with Inkscape (http://www.inkscape.org/) -->

<svg
   xmlns:dc="http://purl.org/dc/elements/1.1/"
   xmlns:cc="http://creativecommons.org/ns#"
   xmlns:rdf="http://www.w3.org/1999/02/22-rdf-syntax-ns#"
   xmlns:svg="http://www.w3.org/2000/svg"
   xmlns="http://www.w3.org/2000/svg"
   xmlns:sodipodi="http://sodipodi.sourceforge.net/DTD/sodipodi-0.dtd"
   xmlns:inkscape="http://www.inkscape.org/namespaces/inkscape"
   width="64"
   height="64"
   id="svg3446"
   version="1.1"
   inkscape:version="0.91 r13725"
   viewBox="0 0 64 64"
   sodipodi:docname="logo.svg">
  <defs
     id="defs3448">
    <clipPath
       id="clip1">
      <path
         id="path3489"
         d="M 0 0 L 32 0 L 32 79.800781 L 0 79.800781 Z M 0 0 " />
    </clipPath>
    <clipPath
       id="clip2">
      <path
         id="path3492"
         d="M 78 28 L 93.609375 28 L 93.609375 50 L 78 50 Z M 78 28 " />
    </clipPath>
  </defs>
  <sodipodi:namedview
     id="base"
     pagecolor="#232323"
     bordercolor="#666666"
     borderopacity="1.0"
     inkscape:pageopacity="0"
     inkscape:pageshadow="2"
     inkscape:zoom="10.816667"
     inkscape:cx="31.325206"
     inkscape:cy="32"
     inkscape:current-layer="layer1"
     showgrid="true"
     inkscape:document-units="px"
     inkscape:grid-bbox="true"
     inkscape:window-width="1440"
     inkscape:window-height="851"
     inkscape:window-x="0"
     inkscape:window-y="0"
     inkscape:window-maximized="1"
     inkscape:snap-midpoints="false"
     inkscape:snap-global="false" />
  <metadata
     id="metadata3451">
    <rdf:RDF>
      <cc:Work
         rdf:about="">
        <dc:format>image/svg+xml</dc:format>
        <dc:type
           rdf:resource="http://purl.org/dc/dcmitype/StillImage" />
        <dc:title></dc:title>
      </cc:Work>
    </rdf:RDF>
  </metadata>
  <g
     id="layer1"
     inkscape:label="Layer 1"
     inkscape:groupmode="layer">
    <g
       style="clip-rule:nonzero;fill:#ffffff"
       clip-path="url(#clip1)"
       id="g3495"
       transform="matrix(-0.75187234,0,0,0.75187234,25.951246,2.0000001)">
      <path
         inkscape:connector-curvature="0"
         style="fill:#ffffff;fill-opacity:1;fill-rule:nonzero;stroke:none"
         d="m 1.722656,78.183594 c 1.152344,-0.07031 1.761719,-0.863282 1.761719,-1.761719 0,-1.183594 -0.898437,-1.757813 -1.726563,-1.757813 C 0.898438,74.664062 0,75.203125 0,76.460938 c 0,1.828124 1.792969,3.339843 3.988281,3.339843 5.457031,0 7.503907,-8.40625 10.054688,-18.820312 2.765625,-11.347657 5.101562,-22.804688 7.039062,-34.332031 1.328125,-7.652344 2.65625,-14.832032 3.878907,-19.46875 0.433593,-1.757813 1.652343,-6.390626 3.054687,-6.390626 1.113281,0 2.011719,0.679688 2.152344,0.824219 C 28.984375,1.6875 28.371094,2.476562 28.371094,3.375 c 0,1.183594 0.898437,1.757812 1.726562,1.757812 0.863282,0 1.757813,-0.539062 1.757813,-1.792968 C 31.855469,1.398438 29.917969,0 27.941406,0 25.214844,0 23.203125,3.914062 21.226562,11.238281 21.117188,11.632812 16.234375,29.664062 12.285156,53.152344 11.351562,58.648438 10.308594,64.644531 9.125,69.636719 c -0.648438,2.621093 -2.300781,9.371093 -5.207031,9.371093 -1.292969,0 -2.15625,-0.824218 -2.191407,-0.824218"
         id="path3497" />
    </g>
    <g
       id="g3528"
       transform="matrix(1.7505074,0,0,1.7505074,-29.670112,-25.707599)"
       style="fill:#ffffff">
      <path
         id="path3499"
         d="m 31.845814,31.5191 c 0,-0.515856 -0.09955,-0.682378 -0.664278,-0.682378 l -2.363888,0 c -0.249784,0 -0.682379,0 -0.682379,0.499566 0,0.515856 0.432595,0.515856 0.682379,0.515856 l 1.880612,0 0,5.142271 -2.012744,0 c -0.266073,0 -0.682378,0 -0.682378,0.514046 0,0.499566 0.432595,0.499566 0.682378,0.499566 l 4.908778,0 c 0.249783,0 0.682378,0 0.682378,-0.499566 0,-0.515856 -0.432595,-0.515856 -0.682378,-0.515856 l -1.74848,0 z m 0,-2.863454 c 0,-0.465175 -0.365625,-0.8308 -0.8308,-0.8308 -0.465176,0 -0.83261,0.365625 -0.83261,0.8308 0,0.466986 0.367434,0.83261 0.83261,0.83261 0.465175,0 0.8308,-0.365624 0.8308,-0.83261"
         style="fill:#ffffff;fill-opacity:1;fill-rule:nonzero;stroke:none"
         inkscape:connector-curvature="0" />
      <path
         id="path3501"
         d="m 38.179079,31.618651 c 0,-0.533956 0,-0.781929 -0.666088,-0.781929 l -1.214525,0 c -0.266073,0 -0.682378,0 -0.682378,0.515857 0,0.499565 0.432596,0.499565 0.666088,0.499565 l 0.749349,0 0,5.140461 -0.733059,0 c -0.266073,0 -0.682378,0 -0.682378,0.515856 0,0.499566 0.432596,0.499566 0.666088,0.499566 l 2.646251,0 c 0.231683,0 0.664278,0 0.664278,-0.499566 0,-0.515856 -0.414494,-0.515856 -0.682378,-0.515856 l -0.731248,0 0,-2.944905 c 0,-1.663409 1.230814,-2.296917 2.079714,-2.296917 0.881481,0 1.114974,0.466986 1.114974,1.464307 l 0,3.777515 -0.649798,0 c -0.266073,0 -0.682378,0 -0.682378,0.515856 0,0.499566 0.448885,0.499566 0.682378,0.499566 l 2.5467,0 c 0.233493,0 0.666088,0 0.666088,-0.499566 0,-0.515856 -0.416305,-0.515856 -0.682378,-0.515856 l -0.733059,0 0,-3.860775 c 0,-1.681511 -0.8489,-2.396469 -2.162975,-2.396469 -1.114974,0 -1.864323,0.566537 -2.181076,0.88148"
         style="fill:#ffffff;fill-opacity:1;fill-rule:nonzero;stroke:none"
         inkscape:connector-curvature="0" />
      <g
         transform="matrix(0.4633655,0,0,0.4633655,8.2214131,15.397239)"
         id="g3503"
         clip-path="url(#clip2)"
         style="clip-rule:nonzero;fill:#ffffff">
        <path
           id="path3505"
           d="m 85.460938,35.511719 5.890624,0 c 0.539063,0 1.4375,0 1.4375,-1.078125 0,-1.113282 -0.863281,-1.113282 -1.4375,-1.113282 l -5.886718,0 0,-2.945312 c 0,-0.683594 0,-1.472656 -1.222656,-1.472656 -1.257813,0 -1.257813,0.753906 -1.257813,1.472656 l 0,2.945312 -3.125,0 c -0.574219,0 -1.472656,0 -1.472656,1.113282 0,1.078125 0.898437,1.078125 1.4375,1.078125 l 3.160156,0 0,8.761719 c 0,3.445312 2.441406,4.738281 5.066406,4.738281 2.65625,0 5.5625,-1.542969 5.5625,-4.738281 0,-0.648438 0,-1.402344 -1.253906,-1.402344 -1.1875,0 -1.222656,0.753906 -1.222656,1.363281 -0.03516,2.230469 -2.082031,2.589844 -2.90625,2.589844 -2.765625,0 -2.765625,-1.867188 -2.765625,-2.769531 l 0,-8.546876"
           style="fill:#ffffff;fill-opacity:1;fill-rule:nonzero;stroke:none"
           inkscape:connector-curvature="0" />
      </g>
    </g>
  </g>
</svg>
